<svg width="115" height="33" viewBox="0 0 115 33" fill="none" xmlns="http://www.w3.org/2000/svg">
<path d="M19.3879 29.3619C12.0483 29.5683 5.92565 24.0065 5.71126 16.939C5.49845 9.87288 11.2743 3.97715 18.6139 3.77071C24.5442 3.60374 29.6769 7.20432 31.5433 12.3198C31.8917 13.2185 32.1202 14.1717 32.2148 15.1629C32.2542 15.503 32.2794 15.846 32.2889 16.1936C32.5033 23.2612 26.7259 29.157 19.3879 29.3619Z" fill="#007D76"/>
<path d="M13.042 33.0001C11.9953 33.0001 10.9485 32.7444 10.15 32.2347C3.606 28.0536 0 22.4893 0 16.5693C0 10.5657 3.69045 4.94726 10.3957 0.748189C12.0132 -0.264702 14.6057 -0.246673 16.1873 0.789163C17.7689 1.825 17.7408 3.48529 16.1233 4.49818C11.0074 7.70075 8.18964 11.9883 8.18964 16.5693C8.18964 21.0863 10.9408 25.3313 15.934 28.5224C17.5361 29.5451 17.5386 31.2054 15.9416 32.2314C15.1431 32.7427 14.0913 33.0001 13.042 33.0001Z" fill="#007D76"/>
<path d="M24.6277 32.9436C23.5501 32.9436 22.4724 32.6881 21.6503 32.1787C20.0008 31.1567 19.9982 29.4975 21.6424 28.4721C26.7541 25.2881 29.5682 21.0557 29.5682 16.5581C29.5682 11.9801 26.6672 7.69705 21.4026 4.49496C19.7373 3.48274 19.7083 1.82355 21.3367 0.788397C22.9651 -0.246754 25.6343 -0.264771 27.2995 0.74745C34.2004 4.94374 38 10.5585 38 16.5581C38 22.4545 34.3111 28.0004 27.6131 32.1738C26.791 32.6864 25.7081 32.9436 24.6277 32.9436Z" fill="#007D76"/>
<path d="M32.8442 16.4398C32.8227 15.7019 32.7433 14.9771 32.6077 14.2736H22.4979C22.0214 14.2736 21.5896 14.4655 21.2786 14.7737C20.9114 15.1394 20.7079 15.6691 20.7939 16.2397C20.9196 17.0859 21.6889 17.6926 22.5525 17.6926H28.7249C28.2799 22.8219 23.8412 26.8197 18.5043 26.6131C13.4221 26.418 9.27958 22.3431 9.04466 17.3072C8.78162 11.6942 13.2947 7.06173 18.898 7.06173C22.7411 7.06173 26.0713 9.23939 27.6992 12.419H32.1213C30.2122 6.80428 24.7776 2.83596 18.4927 3.01798C10.79 3.24263 4.72844 9.61163 4.95178 17.2449C5.17677 24.8799 11.6023 30.8881 19.305 30.6651C27.006 30.4437 33.0692 24.0747 32.8442 16.4398Z" fill="white"/>
<path d="M55.2773 23.5H54.877L54.1445 22.377C53.8385 22.7806 53.4674 23.1029 53.0312 23.3438C52.5951 23.5781 52.11 23.6953 51.5762 23.6953H50.8438C50.3685 23.6953 49.9193 23.6074 49.4961 23.4316C49.0794 23.2493 48.7148 23.002 48.4023 22.6895C48.0898 22.377 47.8424 22.0124 47.6602 21.5957C47.4844 21.179 47.3965 20.7331 47.3965 20.2578V12.7383C47.3965 12.263 47.4844 11.8171 47.6602 11.4004C47.8424 10.9837 48.0898 10.6191 48.4023 10.3066C48.7148 9.99414 49.0794 9.75 49.4961 9.57422C49.9193 9.39193 50.3685 9.30078 50.8438 9.30078H51.8398C52.3151 9.30078 52.7611 9.39193 53.1777 9.57422C53.5944 9.75 53.959 9.99414 54.2715 10.3066C54.584 10.6191 54.8281 10.9837 55.0039 11.4004C55.1862 11.8171 55.2773 12.263 55.2773 12.7383V13.3047L54.0176 13.5V12.7383C54.0176 12.4258 53.959 12.1361 53.8418 11.8691C53.7246 11.5957 53.5651 11.3581 53.3633 11.1562C53.1615 10.9544 52.9238 10.7949 52.6504 10.6777C52.3835 10.5605 52.0938 10.502 51.7812 10.502H50.9023C50.5898 10.502 50.2969 10.5605 50.0234 10.6777C49.7565 10.7949 49.5189 10.9544 49.3105 11.1562C49.1087 11.3581 48.9492 11.5957 48.832 11.8691C48.7148 12.1361 48.6562 12.4258 48.6562 12.7383V20.2578C48.6562 20.5703 48.7148 20.8633 48.832 21.1367C48.9492 21.4036 49.1087 21.6413 49.3105 21.8496C49.5189 22.0514 49.7565 22.2109 50.0234 22.3281C50.2969 22.4453 50.5898 22.5039 50.9023 22.5039H51.7812C52.0938 22.5039 52.3835 22.4453 52.6504 22.3281C52.9238 22.2109 53.1615 22.0514 53.3633 21.8496C53.5651 21.6413 53.7246 21.4036 53.8418 21.1367C53.959 20.8633 54.0176 20.5703 54.0176 20.2578V17.3379H51.7812V16.1367H55.2773V23.5ZM57.9922 11.0977V9.49609H59.3887V11.0977H57.9922ZM58.0898 23.5V13.5H59.291V23.5H58.0898ZM68.8809 24.7598C68.8809 25.1634 68.8027 25.5345 68.6465 25.873C68.4967 26.2116 68.2884 26.5013 68.0215 26.7422C67.7546 26.9831 67.4421 27.1686 67.084 27.2988C66.7259 27.4355 66.3451 27.5039 65.9414 27.5039H65.4434C65.0397 27.5039 64.6589 27.4355 64.3008 27.2988C63.9427 27.1686 63.6302 26.9831 63.3633 26.7422C63.0964 26.5013 62.8848 26.2116 62.7285 25.873C62.5788 25.5345 62.5039 25.1634 62.5039 24.7598V24.7207C62.5039 24.3301 62.5755 23.972 62.7188 23.6465C62.862 23.321 63.0573 23.0378 63.3047 22.7969C62.9922 22.6081 62.7415 22.3542 62.5527 22.0352C62.3704 21.7096 62.2793 21.3516 62.2793 20.9609C62.2793 20.6094 62.3542 20.2839 62.5039 19.9844C62.6536 19.6784 62.8587 19.431 63.1191 19.2422C62.8066 18.9688 62.5592 18.64 62.377 18.2559C62.1947 17.8717 62.1035 17.4518 62.1035 16.9961V16.2441C62.1035 15.8405 62.1784 15.4596 62.3281 15.1016C62.4844 14.7435 62.696 14.431 62.9629 14.1641C63.2298 13.8971 63.5423 13.6888 63.9004 13.5391C64.2585 13.3828 64.6393 13.3047 65.043 13.3047H65.541C66.0293 13.3047 66.4785 13.4154 66.8887 13.6367C67.3053 13.8516 67.6504 14.1445 67.9238 14.5156L68.5781 13.5H68.9785V16.9961C68.9785 17.3997 68.9004 17.7806 68.7441 18.1387C68.5944 18.4967 68.3861 18.8092 68.1191 19.0762C67.8522 19.3431 67.5397 19.5547 67.1816 19.7109C66.8236 19.8607 66.4427 19.9355 66.0391 19.9355H64.3008C64.1641 19.9355 64.0339 19.9648 63.9102 20.0234C63.7865 20.0755 63.6758 20.1471 63.5781 20.2383C63.487 20.3294 63.4154 20.4401 63.3633 20.5703C63.3112 20.694 63.2852 20.8242 63.2852 20.9609C63.2852 21.0977 63.3112 21.2279 63.3633 21.3516C63.4154 21.4753 63.487 21.5859 63.5781 21.6836C63.6758 21.7747 63.7865 21.8464 63.9102 21.8984C64.0339 21.9505 64.1641 21.9766 64.3008 21.9766H65.9414C66.3451 21.9766 66.7259 22.0449 67.084 22.1816C67.4421 22.3118 67.7546 22.4974 68.0215 22.7383C68.2884 22.9792 68.4967 23.2689 68.6465 23.6074C68.8027 23.946 68.8809 24.3171 68.8809 24.7207V24.7598ZM67.7871 16.1758C67.7871 15.9349 67.7415 15.7103 67.6504 15.502C67.5592 15.2871 67.4323 15.1016 67.2695 14.9453C67.1133 14.7891 66.9277 14.6654 66.7129 14.5742C66.5046 14.4831 66.2799 14.4375 66.0391 14.4375H65.043C64.8021 14.4375 64.5742 14.4831 64.3594 14.5742C64.151 14.6654 63.9688 14.7891 63.8125 14.9453C63.6562 15.1016 63.5326 15.2871 63.4414 15.502C63.3503 15.7103 63.3047 15.9349 63.3047 16.1758V17.0645C63.3047 17.3053 63.3503 17.5332 63.4414 17.748C63.5326 17.9564 63.6562 18.1387 63.8125 18.2949C63.9688 18.4512 64.151 18.5749 64.3594 18.666C64.5742 18.7572 64.8021 18.8027 65.043 18.8027H66.0391C66.2799 18.8027 66.5046 18.7572 66.7129 18.666C66.9277 18.5749 67.1133 18.4512 67.2695 18.2949C67.4323 18.1387 67.5592 17.9564 67.6504 17.748C67.7415 17.5332 67.7871 17.3053 67.7871 17.0645V16.1758ZM67.7383 24.6621C67.7383 24.4212 67.6927 24.2031 67.6016 24.0078C67.5104 23.819 67.3867 23.6595 67.2305 23.5293C67.0742 23.3991 66.8887 23.2982 66.6738 23.2266C66.4655 23.1549 66.2409 23.1191 66 23.1191H65.3848C65.1439 23.1191 64.916 23.1549 64.7012 23.2266C64.4928 23.2982 64.3105 23.3991 64.1543 23.5293C63.998 23.6595 63.8743 23.819 63.7832 24.0078C63.6921 24.2031 63.6465 24.4212 63.6465 24.6621V24.8184C63.6465 25.0592 63.6921 25.2741 63.7832 25.4629C63.8743 25.6517 63.998 25.8112 64.1543 25.9414C64.3105 26.0781 64.4928 26.1823 64.7012 26.2539C64.916 26.3255 65.1439 26.3613 65.3848 26.3613H66C66.2409 26.3613 66.4655 26.3255 66.6738 26.2539C66.8887 26.1823 67.0742 26.0781 67.2305 25.9414C67.3867 25.8112 67.5104 25.6517 67.6016 25.4629C67.6927 25.2741 67.7383 25.0592 67.7383 24.8184V24.6621ZM77.4648 23.5L76.8008 22.5039C76.5273 22.862 76.1855 23.1517 75.7754 23.373C75.3652 23.5879 74.916 23.6953 74.4277 23.6953H74.125C73.7214 23.6953 73.3405 23.6204 72.9824 23.4707C72.6243 23.3145 72.3118 23.1029 72.0449 22.8359C71.778 22.569 71.5664 22.2565 71.4102 21.8984C71.2604 21.5404 71.1855 21.1595 71.1855 20.7559V20.6582C71.1855 20.2546 71.2604 19.8737 71.4102 19.5156C71.5664 19.1576 71.778 18.8451 72.0449 18.5781C72.3118 18.3112 72.6243 18.1029 72.9824 17.9531C73.3405 17.7969 73.7214 17.7188 74.125 17.7188H76.6641V16.1758C76.6641 15.9349 76.6185 15.7103 76.5273 15.502C76.4362 15.2871 76.3125 15.1016 76.1562 14.9453C76 14.7891 75.8145 14.6654 75.5996 14.5742C75.3913 14.4831 75.1667 14.4375 74.9258 14.4375H74.2227C73.9818 14.4375 73.7539 14.4831 73.5391 14.5742C73.3307 14.6654 73.1484 14.7891 72.9922 14.9453C72.8359 15.1016 72.7122 15.2871 72.6211 15.502C72.5299 15.7103 72.4844 15.9349 72.4844 16.1758V16.5371L71.2832 16.3418V16.2441C71.2832 15.8405 71.3581 15.4596 71.5078 15.1016C71.6641 14.7435 71.8757 14.431 72.1426 14.1641C72.4095 13.8971 72.722 13.6888 73.0801 13.5391C73.4382 13.3828 73.819 13.3047 74.2227 13.3047H74.9258C75.3294 13.3047 75.7103 13.3828 76.0684 13.5391C76.4264 13.6888 76.7389 13.8971 77.0059 14.1641C77.2728 14.431 77.4811 14.7435 77.6309 15.1016C77.7871 15.4596 77.8652 15.8405 77.8652 16.2441V23.5H77.4648ZM76.6641 18.6562H74.125C73.8841 18.6562 73.6562 18.7018 73.4414 18.793C73.2331 18.8841 73.0508 19.0111 72.8945 19.1738C72.7383 19.3301 72.6146 19.5156 72.5234 19.7305C72.4323 19.9388 72.3867 20.1634 72.3867 20.4043V20.8242C72.3867 21.0651 72.4323 21.293 72.5234 21.5078C72.6146 21.7161 72.7383 21.8984 72.8945 22.0547C73.0508 22.2109 73.2331 22.3346 73.4414 22.4258C73.6562 22.5169 73.8841 22.5625 74.125 22.5625H74.9258C75.1667 22.5625 75.3913 22.5169 75.5996 22.4258C75.8145 22.3346 76 22.2109 76.1562 22.0547C76.3125 21.8984 76.4362 21.7161 76.5273 21.5078C76.6185 21.293 76.6641 21.0651 76.6641 20.8242V18.6562ZM83.9102 23.5C83.5456 23.5 83.2005 23.4316 82.875 23.2949C82.556 23.1582 82.276 22.9694 82.0352 22.7285C81.8008 22.4876 81.612 22.2077 81.4688 21.8887C81.332 21.5697 81.2637 21.2279 81.2637 20.8633V14.6426H79.4668V13.5H81.2637V11.0977L82.4648 10.9023V13.5H85.0039V14.6426H82.4648V20.9219C82.4648 21.1237 82.5007 21.3125 82.5723 21.4883C82.6504 21.6576 82.7546 21.8073 82.8848 21.9375C83.015 22.0677 83.168 22.1719 83.3438 22.25C83.5195 22.3216 83.7083 22.3574 83.9102 22.3574H85.0039V23.5H83.9102ZM90.1602 14.6426C89.9193 14.6426 89.6914 14.6882 89.4766 14.7793C89.2682 14.8704 89.0859 14.9941 88.9297 15.1504C88.7734 15.3066 88.6497 15.4922 88.5586 15.707C88.4674 15.9154 88.4219 16.14 88.4219 16.3809V23.5H87.2207V13.5H87.6211L88.2754 14.5156C88.5488 14.1445 88.8906 13.8516 89.3008 13.6367C89.7174 13.4154 90.1699 13.3047 90.6582 13.3047H91.3613V14.6426H90.1602ZM99.2422 23.5L98.5781 22.5039C98.3047 22.862 97.9629 23.1517 97.5527 23.373C97.1426 23.5879 96.6934 23.6953 96.2051 23.6953H95.9023C95.4987 23.6953 95.1178 23.6204 94.7598 23.4707C94.4017 23.3145 94.0892 23.1029 93.8223 22.8359C93.5553 22.569 93.3438 22.2565 93.1875 21.8984C93.0378 21.5404 92.9629 21.1595 92.9629 20.7559V20.6582C92.9629 20.2546 93.0378 19.8737 93.1875 19.5156C93.3438 19.1576 93.5553 18.8451 93.8223 18.5781C94.0892 18.3112 94.4017 18.1029 94.7598 17.9531C95.1178 17.7969 95.4987 17.7188 95.9023 17.7188H98.4414V16.1758C98.4414 15.9349 98.3958 15.7103 98.3047 15.502C98.2135 15.2871 98.0898 15.1016 97.9336 14.9453C97.7773 14.7891 97.5918 14.6654 97.377 14.5742C97.1686 14.4831 96.944 14.4375 96.7031 14.4375H96C95.7591 14.4375 95.5312 14.4831 95.3164 14.5742C95.1081 14.6654 94.9258 14.7891 94.7695 14.9453C94.6133 15.1016 94.4896 15.2871 94.3984 15.502C94.3073 15.7103 94.2617 15.9349 94.2617 16.1758V16.5371L93.0605 16.3418V16.2441C93.0605 15.8405 93.1354 15.4596 93.2852 15.1016C93.4414 14.7435 93.653 14.431 93.9199 14.1641C94.1868 13.8971 94.4993 13.6888 94.8574 13.5391C95.2155 13.3828 95.5964 13.3047 96 13.3047H96.7031C97.1068 13.3047 97.4876 13.3828 97.8457 13.5391C98.2038 13.6888 98.5163 13.8971 98.7832 14.1641C99.0501 14.431 99.2585 14.7435 99.4082 15.1016C99.5645 15.4596 99.6426 15.8405 99.6426 16.2441V23.5H99.2422ZM98.4414 18.6562H95.9023C95.6615 18.6562 95.4336 18.7018 95.2188 18.793C95.0104 18.8841 94.8281 19.0111 94.6719 19.1738C94.5156 19.3301 94.3919 19.5156 94.3008 19.7305C94.2096 19.9388 94.1641 20.1634 94.1641 20.4043V20.8242C94.1641 21.0651 94.2096 21.293 94.3008 21.5078C94.3919 21.7161 94.5156 21.8984 94.6719 22.0547C94.8281 22.2109 95.0104 22.3346 95.2188 22.4258C95.4336 22.5169 95.6615 22.5625 95.9023 22.5625H96.7031C96.944 22.5625 97.1686 22.5169 97.377 22.4258C97.5918 22.3346 97.7773 22.2109 97.9336 22.0547C98.0898 21.8984 98.2135 21.7161 98.3047 21.5078C98.3958 21.293 98.4414 21.0651 98.4414 20.8242V18.6562ZM102.348 11.0977V9.49609H103.744V11.0977H102.348ZM102.445 23.5V13.5H103.646V23.5H102.445ZM111.938 23.5V16.1758C111.938 15.9349 111.892 15.7103 111.801 15.502C111.71 15.2871 111.586 15.1016 111.43 14.9453C111.273 14.7891 111.088 14.6654 110.873 14.5742C110.665 14.4831 110.44 14.4375 110.199 14.4375H109.398C109.158 14.4375 108.93 14.4831 108.715 14.5742C108.507 14.6654 108.324 14.7891 108.168 14.9453C108.012 15.1016 107.888 15.2871 107.797 15.502C107.706 15.7103 107.66 15.9349 107.66 16.1758V23.5H106.459V13.5H106.859L107.514 14.5156C107.787 14.1445 108.129 13.8516 108.539 13.6367C108.956 13.4154 109.408 13.3047 109.896 13.3047H110.199C110.603 13.3047 110.984 13.3828 111.342 13.5391C111.7 13.6888 112.012 13.8971 112.279 14.1641C112.546 14.431 112.755 14.7435 112.904 15.1016C113.061 15.4596 113.139 15.8405 113.139 16.2441V23.5H111.938Z" fill="#4AD7D1"/>
</svg>
