<svg width="220" height="33" viewBox="0 0 220 33" fill="none" xmlns="http://www.w3.org/2000/svg">
<path d="M1.314 23.5H3.474V19.432H6.804C9.63 19.432 10.98 18.064 10.98 15.184C10.98 12.304 9.648 10.9 6.804 10.9H1.314V23.5ZM3.474 17.614V12.7H6.462C8.064 12.7 8.82 13.492 8.82 15.166C8.82 16.822 8.064 17.614 6.462 17.614H3.474ZM16.6642 23.68C19.5622 23.68 21.0202 22.096 21.0202 19C21.0202 15.904 19.5622 14.32 16.6642 14.32C13.7482 14.32 12.2902 15.904 12.2902 19C12.2902 22.096 13.7482 23.68 16.6642 23.68ZM14.2702 19C14.2702 16.822 15.1522 15.94 16.6642 15.94C18.1582 15.94 19.0402 16.822 19.0402 19C19.0402 21.178 18.1582 22.06 16.6642 22.06C15.1522 22.06 14.2702 21.178 14.2702 19ZM24.2796 23.5H26.5836L28.2036 17.2L29.8056 23.5H32.1096L34.3596 14.5H32.3256L30.7236 21.016L29.1216 14.5H27.2856L25.6656 20.98L24.0636 14.5H22.0296L24.2796 23.5ZM39.5647 23.68C41.7787 23.68 43.1107 22.69 43.5427 20.728H41.5627C41.2387 21.664 40.5727 22.042 39.5827 22.042C38.3047 22.042 37.5307 21.376 37.3687 19.72H43.6867C43.7227 19.396 43.7227 19.216 43.7227 19C43.7227 15.904 42.2827 14.32 39.5107 14.32C36.7387 14.32 35.3527 15.904 35.3527 19C35.3527 22.078 36.7567 23.68 39.5647 23.68ZM37.3687 18.28C37.5307 16.606 38.2867 15.94 39.5467 15.94C40.8067 15.94 41.5447 16.624 41.7067 18.28H37.3687ZM45.9273 23.5H47.9073V18.064C48.0333 16.768 48.8073 15.94 50.2113 15.94C50.5893 15.94 51.0033 15.976 51.3453 16.03V14.5C51.0933 14.392 50.6973 14.32 50.1573 14.32C49.0773 14.32 48.2313 14.752 47.6733 15.472L47.4573 14.5H45.9273V23.5ZM56.4749 23.68C58.6889 23.68 60.0209 22.69 60.4529 20.728H58.4729C58.1489 21.664 57.4829 22.042 56.4929 22.042C55.2149 22.042 54.4409 21.376 54.2789 19.72H60.5969C60.6329 19.396 60.6329 19.216 60.6329 19C60.6329 15.904 59.1929 14.32 56.4209 14.32C53.6489 14.32 52.2629 15.904 52.2629 19C52.2629 22.078 53.6669 23.68 56.4749 23.68ZM54.2789 18.28C54.4409 16.606 55.1969 15.94 56.4569 15.94C57.7169 15.94 58.4549 16.624 58.6169 18.28H54.2789ZM66.1314 23.68C67.3914 23.68 68.3094 23.158 68.8854 22.492L69.1554 23.5H70.6854V10H68.7054V15.31C68.1114 14.734 67.2654 14.32 66.1314 14.32C63.6654 14.32 62.4054 15.868 62.4054 19C62.4054 22.132 63.6654 23.68 66.1314 23.68ZM64.3854 19C64.3854 16.858 65.1594 15.94 66.6534 15.94C67.6254 15.94 68.3094 16.39 68.7054 16.894V21.106C68.3094 21.61 67.6254 22.06 66.6534 22.06C65.1594 22.06 64.3854 21.142 64.3854 19ZM83.2465 23.68C85.7305 23.68 86.9905 22.132 86.9905 19C86.9905 15.868 85.7305 14.32 83.2465 14.32C82.1305 14.32 81.2845 14.734 80.6905 15.292V10H78.7105V23.5H80.2405L80.4925 22.492C81.0865 23.158 82.0045 23.68 83.2465 23.68ZM80.6905 21.106V16.894C81.0865 16.39 81.7705 15.94 82.7425 15.94C84.2365 15.94 85.0105 16.858 85.0105 19C85.0105 21.142 84.2365 22.042 82.7425 22.042C81.7705 22.042 81.0865 21.592 80.6905 21.106ZM88.5788 28H90.6668C91.7648 28 92.5028 27.442 92.8268 26.434L96.7148 14.5H94.6628L92.3408 21.934L90.0548 14.5H87.9848L90.9008 23.5H91.8008L91.0268 25.786C90.8468 26.254 90.5588 26.47 90.0908 26.47H88.5788V28Z" fill="white"/>
<path d="M124.388 29.3619C117.048 29.5683 110.926 24.0065 110.711 16.939C110.498 9.87288 116.274 3.97715 123.614 3.77071C129.544 3.60374 134.677 7.20432 136.543 12.3198C136.892 13.2185 137.12 14.1717 137.215 15.1629C137.254 15.503 137.279 15.846 137.289 16.1936C137.503 23.2612 131.726 29.157 124.388 29.3619Z" fill="#007D76"/>
<path d="M118.042 33.0001C116.995 33.0001 115.949 32.7444 115.15 32.2347C108.606 28.0536 105 22.4893 105 16.5693C105 10.5657 108.69 4.94726 115.396 0.748189C117.013 -0.264702 119.606 -0.246673 121.187 0.789163C122.769 1.825 122.741 3.48529 121.123 4.49818C116.007 7.70075 113.19 11.9883 113.19 16.5693C113.19 21.0863 115.941 25.3313 120.934 28.5224C122.536 29.5451 122.539 31.2054 120.942 32.2314C120.143 32.7427 119.091 33.0001 118.042 33.0001Z" fill="#007D76"/>
<path d="M129.628 32.9436C128.55 32.9436 127.472 32.6881 126.65 32.1787C125.001 31.1567 124.998 29.4975 126.642 28.4721C131.754 25.2881 134.568 21.0557 134.568 16.5581C134.568 11.9801 131.667 7.69705 126.403 4.49496C124.737 3.48274 124.708 1.82355 126.337 0.788397C127.965 -0.246754 130.634 -0.264771 132.3 0.74745C139.2 4.94374 143 10.5585 143 16.5581C143 22.4545 139.311 28.0004 132.613 32.1738C131.791 32.6864 130.708 32.9436 129.628 32.9436Z" fill="#007D76"/>
<path d="M137.844 16.4398C137.823 15.7019 137.743 14.9771 137.608 14.2736H127.498C127.021 14.2736 126.59 14.4655 126.279 14.7737C125.911 15.1394 125.708 15.6691 125.794 16.2397C125.92 17.0859 126.689 17.6926 127.552 17.6926H133.725C133.28 22.8219 128.841 26.8197 123.504 26.6131C118.422 26.418 114.28 22.3431 114.045 17.3072C113.782 11.6942 118.295 7.06173 123.898 7.06173C127.741 7.06173 131.071 9.23939 132.699 12.419H137.121C135.212 6.80428 129.778 2.83596 123.493 3.01798C115.79 3.24263 109.728 9.61163 109.952 17.2449C110.177 24.8799 116.602 30.8881 124.305 30.6651C132.006 30.4437 138.069 24.0747 137.844 16.4398Z" fill="white"/>
<path d="M160.277 23.5H159.877L159.145 22.377C158.839 22.7806 158.467 23.1029 158.031 23.3438C157.595 23.5781 157.11 23.6953 156.576 23.6953H155.844C155.368 23.6953 154.919 23.6074 154.496 23.4316C154.079 23.2493 153.715 23.002 153.402 22.6895C153.09 22.377 152.842 22.0124 152.66 21.5957C152.484 21.179 152.396 20.7331 152.396 20.2578V12.7383C152.396 12.263 152.484 11.8171 152.66 11.4004C152.842 10.9837 153.09 10.6191 153.402 10.3066C153.715 9.99414 154.079 9.75 154.496 9.57422C154.919 9.39193 155.368 9.30078 155.844 9.30078H156.84C157.315 9.30078 157.761 9.39193 158.178 9.57422C158.594 9.75 158.959 9.99414 159.271 10.3066C159.584 10.6191 159.828 10.9837 160.004 11.4004C160.186 11.8171 160.277 12.263 160.277 12.7383V13.3047L159.018 13.5V12.7383C159.018 12.4258 158.959 12.1361 158.842 11.8691C158.725 11.5957 158.565 11.3581 158.363 11.1562C158.161 10.9544 157.924 10.7949 157.65 10.6777C157.383 10.5605 157.094 10.502 156.781 10.502H155.902C155.59 10.502 155.297 10.5605 155.023 10.6777C154.757 10.7949 154.519 10.9544 154.311 11.1562C154.109 11.3581 153.949 11.5957 153.832 11.8691C153.715 12.1361 153.656 12.4258 153.656 12.7383V20.2578C153.656 20.5703 153.715 20.8633 153.832 21.1367C153.949 21.4036 154.109 21.6413 154.311 21.8496C154.519 22.0514 154.757 22.2109 155.023 22.3281C155.297 22.4453 155.59 22.5039 155.902 22.5039H156.781C157.094 22.5039 157.383 22.4453 157.65 22.3281C157.924 22.2109 158.161 22.0514 158.363 21.8496C158.565 21.6413 158.725 21.4036 158.842 21.1367C158.959 20.8633 159.018 20.5703 159.018 20.2578V17.3379H156.781V16.1367H160.277V23.5ZM162.992 11.0977V9.49609H164.389V11.0977H162.992ZM163.09 23.5V13.5H164.291V23.5H163.09ZM173.881 24.7598C173.881 25.1634 173.803 25.5345 173.646 25.873C173.497 26.2116 173.288 26.5013 173.021 26.7422C172.755 26.9831 172.442 27.1686 172.084 27.2988C171.726 27.4355 171.345 27.5039 170.941 27.5039H170.443C170.04 27.5039 169.659 27.4355 169.301 27.2988C168.943 27.1686 168.63 26.9831 168.363 26.7422C168.096 26.5013 167.885 26.2116 167.729 25.873C167.579 25.5345 167.504 25.1634 167.504 24.7598V24.7207C167.504 24.3301 167.576 23.972 167.719 23.6465C167.862 23.321 168.057 23.0378 168.305 22.7969C167.992 22.6081 167.742 22.3542 167.553 22.0352C167.37 21.7096 167.279 21.3516 167.279 20.9609C167.279 20.6094 167.354 20.2839 167.504 19.9844C167.654 19.6784 167.859 19.431 168.119 19.2422C167.807 18.9688 167.559 18.64 167.377 18.2559C167.195 17.8717 167.104 17.4518 167.104 16.9961V16.2441C167.104 15.8405 167.178 15.4596 167.328 15.1016C167.484 14.7435 167.696 14.431 167.963 14.1641C168.23 13.8971 168.542 13.6888 168.9 13.5391C169.258 13.3828 169.639 13.3047 170.043 13.3047H170.541C171.029 13.3047 171.479 13.4154 171.889 13.6367C172.305 13.8516 172.65 14.1445 172.924 14.5156L173.578 13.5H173.979V16.9961C173.979 17.3997 173.9 17.7806 173.744 18.1387C173.594 18.4967 173.386 18.8092 173.119 19.0762C172.852 19.3431 172.54 19.5547 172.182 19.7109C171.824 19.8607 171.443 19.9355 171.039 19.9355H169.301C169.164 19.9355 169.034 19.9648 168.91 20.0234C168.786 20.0755 168.676 20.1471 168.578 20.2383C168.487 20.3294 168.415 20.4401 168.363 20.5703C168.311 20.694 168.285 20.8242 168.285 20.9609C168.285 21.0977 168.311 21.2279 168.363 21.3516C168.415 21.4753 168.487 21.5859 168.578 21.6836C168.676 21.7747 168.786 21.8464 168.91 21.8984C169.034 21.9505 169.164 21.9766 169.301 21.9766H170.941C171.345 21.9766 171.726 22.0449 172.084 22.1816C172.442 22.3118 172.755 22.4974 173.021 22.7383C173.288 22.9792 173.497 23.2689 173.646 23.6074C173.803 23.946 173.881 24.3171 173.881 24.7207V24.7598ZM172.787 16.1758C172.787 15.9349 172.742 15.7103 172.65 15.502C172.559 15.2871 172.432 15.1016 172.27 14.9453C172.113 14.7891 171.928 14.6654 171.713 14.5742C171.505 14.4831 171.28 14.4375 171.039 14.4375H170.043C169.802 14.4375 169.574 14.4831 169.359 14.5742C169.151 14.6654 168.969 14.7891 168.812 14.9453C168.656 15.1016 168.533 15.2871 168.441 15.502C168.35 15.7103 168.305 15.9349 168.305 16.1758V17.0645C168.305 17.3053 168.35 17.5332 168.441 17.748C168.533 17.9564 168.656 18.1387 168.812 18.2949C168.969 18.4512 169.151 18.5749 169.359 18.666C169.574 18.7572 169.802 18.8027 170.043 18.8027H171.039C171.28 18.8027 171.505 18.7572 171.713 18.666C171.928 18.5749 172.113 18.4512 172.27 18.2949C172.432 18.1387 172.559 17.9564 172.65 17.748C172.742 17.5332 172.787 17.3053 172.787 17.0645V16.1758ZM172.738 24.6621C172.738 24.4212 172.693 24.2031 172.602 24.0078C172.51 23.819 172.387 23.6595 172.23 23.5293C172.074 23.3991 171.889 23.2982 171.674 23.2266C171.465 23.1549 171.241 23.1191 171 23.1191H170.385C170.144 23.1191 169.916 23.1549 169.701 23.2266C169.493 23.2982 169.311 23.3991 169.154 23.5293C168.998 23.6595 168.874 23.819 168.783 24.0078C168.692 24.2031 168.646 24.4212 168.646 24.6621V24.8184C168.646 25.0592 168.692 25.2741 168.783 25.4629C168.874 25.6517 168.998 25.8112 169.154 25.9414C169.311 26.0781 169.493 26.1823 169.701 26.2539C169.916 26.3255 170.144 26.3613 170.385 26.3613H171C171.241 26.3613 171.465 26.3255 171.674 26.2539C171.889 26.1823 172.074 26.0781 172.23 25.9414C172.387 25.8112 172.51 25.6517 172.602 25.4629C172.693 25.2741 172.738 25.0592 172.738 24.8184V24.6621ZM182.465 23.5L181.801 22.5039C181.527 22.862 181.186 23.1517 180.775 23.373C180.365 23.5879 179.916 23.6953 179.428 23.6953H179.125C178.721 23.6953 178.34 23.6204 177.982 23.4707C177.624 23.3145 177.312 23.1029 177.045 22.8359C176.778 22.569 176.566 22.2565 176.41 21.8984C176.26 21.5404 176.186 21.1595 176.186 20.7559V20.6582C176.186 20.2546 176.26 19.8737 176.41 19.5156C176.566 19.1576 176.778 18.8451 177.045 18.5781C177.312 18.3112 177.624 18.1029 177.982 17.9531C178.34 17.7969 178.721 17.7188 179.125 17.7188H181.664V16.1758C181.664 15.9349 181.618 15.7103 181.527 15.502C181.436 15.2871 181.312 15.1016 181.156 14.9453C181 14.7891 180.814 14.6654 180.6 14.5742C180.391 14.4831 180.167 14.4375 179.926 14.4375H179.223C178.982 14.4375 178.754 14.4831 178.539 14.5742C178.331 14.6654 178.148 14.7891 177.992 14.9453C177.836 15.1016 177.712 15.2871 177.621 15.502C177.53 15.7103 177.484 15.9349 177.484 16.1758V16.5371L176.283 16.3418V16.2441C176.283 15.8405 176.358 15.4596 176.508 15.1016C176.664 14.7435 176.876 14.431 177.143 14.1641C177.41 13.8971 177.722 13.6888 178.08 13.5391C178.438 13.3828 178.819 13.3047 179.223 13.3047H179.926C180.329 13.3047 180.71 13.3828 181.068 13.5391C181.426 13.6888 181.739 13.8971 182.006 14.1641C182.273 14.431 182.481 14.7435 182.631 15.1016C182.787 15.4596 182.865 15.8405 182.865 16.2441V23.5H182.465ZM181.664 18.6562H179.125C178.884 18.6562 178.656 18.7018 178.441 18.793C178.233 18.8841 178.051 19.0111 177.895 19.1738C177.738 19.3301 177.615 19.5156 177.523 19.7305C177.432 19.9388 177.387 20.1634 177.387 20.4043V20.8242C177.387 21.0651 177.432 21.293 177.523 21.5078C177.615 21.7161 177.738 21.8984 177.895 22.0547C178.051 22.2109 178.233 22.3346 178.441 22.4258C178.656 22.5169 178.884 22.5625 179.125 22.5625H179.926C180.167 22.5625 180.391 22.5169 180.6 22.4258C180.814 22.3346 181 22.2109 181.156 22.0547C181.312 21.8984 181.436 21.7161 181.527 21.5078C181.618 21.293 181.664 21.0651 181.664 20.8242V18.6562ZM188.91 23.5C188.546 23.5 188.201 23.4316 187.875 23.2949C187.556 23.1582 187.276 22.9694 187.035 22.7285C186.801 22.4876 186.612 22.2077 186.469 21.8887C186.332 21.5697 186.264 21.2279 186.264 20.8633V14.6426H184.467V13.5H186.264V11.0977L187.465 10.9023V13.5H190.004V14.6426H187.465V20.9219C187.465 21.1237 187.501 21.3125 187.572 21.4883C187.65 21.6576 187.755 21.8073 187.885 21.9375C188.015 22.0677 188.168 22.1719 188.344 22.25C188.52 22.3216 188.708 22.3574 188.91 22.3574H190.004V23.5H188.91ZM195.16 14.6426C194.919 14.6426 194.691 14.6882 194.477 14.7793C194.268 14.8704 194.086 14.9941 193.93 15.1504C193.773 15.3066 193.65 15.4922 193.559 15.707C193.467 15.9154 193.422 16.14 193.422 16.3809V23.5H192.221V13.5H192.621L193.275 14.5156C193.549 14.1445 193.891 13.8516 194.301 13.6367C194.717 13.4154 195.17 13.3047 195.658 13.3047H196.361V14.6426H195.16ZM204.242 23.5L203.578 22.5039C203.305 22.862 202.963 23.1517 202.553 23.373C202.143 23.5879 201.693 23.6953 201.205 23.6953H200.902C200.499 23.6953 200.118 23.6204 199.76 23.4707C199.402 23.3145 199.089 23.1029 198.822 22.8359C198.555 22.569 198.344 22.2565 198.188 21.8984C198.038 21.5404 197.963 21.1595 197.963 20.7559V20.6582C197.963 20.2546 198.038 19.8737 198.188 19.5156C198.344 19.1576 198.555 18.8451 198.822 18.5781C199.089 18.3112 199.402 18.1029 199.76 17.9531C200.118 17.7969 200.499 17.7188 200.902 17.7188H203.441V16.1758C203.441 15.9349 203.396 15.7103 203.305 15.502C203.214 15.2871 203.09 15.1016 202.934 14.9453C202.777 14.7891 202.592 14.6654 202.377 14.5742C202.169 14.4831 201.944 14.4375 201.703 14.4375H201C200.759 14.4375 200.531 14.4831 200.316 14.5742C200.108 14.6654 199.926 14.7891 199.77 14.9453C199.613 15.1016 199.49 15.2871 199.398 15.502C199.307 15.7103 199.262 15.9349 199.262 16.1758V16.5371L198.061 16.3418V16.2441C198.061 15.8405 198.135 15.4596 198.285 15.1016C198.441 14.7435 198.653 14.431 198.92 14.1641C199.187 13.8971 199.499 13.6888 199.857 13.5391C200.215 13.3828 200.596 13.3047 201 13.3047H201.703C202.107 13.3047 202.488 13.3828 202.846 13.5391C203.204 13.6888 203.516 13.8971 203.783 14.1641C204.05 14.431 204.258 14.7435 204.408 15.1016C204.564 15.4596 204.643 15.8405 204.643 16.2441V23.5H204.242ZM203.441 18.6562H200.902C200.661 18.6562 200.434 18.7018 200.219 18.793C200.01 18.8841 199.828 19.0111 199.672 19.1738C199.516 19.3301 199.392 19.5156 199.301 19.7305C199.21 19.9388 199.164 20.1634 199.164 20.4043V20.8242C199.164 21.0651 199.21 21.293 199.301 21.5078C199.392 21.7161 199.516 21.8984 199.672 22.0547C199.828 22.2109 200.01 22.3346 200.219 22.4258C200.434 22.5169 200.661 22.5625 200.902 22.5625H201.703C201.944 22.5625 202.169 22.5169 202.377 22.4258C202.592 22.3346 202.777 22.2109 202.934 22.0547C203.09 21.8984 203.214 21.7161 203.305 21.5078C203.396 21.293 203.441 21.0651 203.441 20.8242V18.6562ZM207.348 11.0977V9.49609H208.744V11.0977H207.348ZM207.445 23.5V13.5H208.646V23.5H207.445ZM216.938 23.5V16.1758C216.938 15.9349 216.892 15.7103 216.801 15.502C216.71 15.2871 216.586 15.1016 216.43 14.9453C216.273 14.7891 216.088 14.6654 215.873 14.5742C215.665 14.4831 215.44 14.4375 215.199 14.4375H214.398C214.158 14.4375 213.93 14.4831 213.715 14.5742C213.507 14.6654 213.324 14.7891 213.168 14.9453C213.012 15.1016 212.888 15.2871 212.797 15.502C212.706 15.7103 212.66 15.9349 212.66 16.1758V23.5H211.459V13.5H211.859L212.514 14.5156C212.787 14.1445 213.129 13.8516 213.539 13.6367C213.956 13.4154 214.408 13.3047 214.896 13.3047H215.199C215.603 13.3047 215.984 13.3828 216.342 13.5391C216.7 13.6888 217.012 13.8971 217.279 14.1641C217.546 14.431 217.755 14.7435 217.904 15.1016C218.061 15.4596 218.139 15.8405 218.139 16.2441V23.5H216.938Z" fill="#4AD7D1"/>
</svg>
