<svg width="80" height="23" viewBox="0 0 80 23" fill="none" xmlns="http://www.w3.org/2000/svg">
<path d="M10.1328 18H9.65234L8.77344 16.6523C8.40625 17.1367 7.96094 17.5234 7.4375 17.8125C6.91406 18.0938 6.33203 18.2344 5.69141 18.2344H4.8125C4.24219 18.2344 3.70312 18.1289 3.19531 17.918C2.69531 17.6992 2.25781 17.4023 1.88281 17.0273C1.50781 16.6523 1.21094 16.2148 0.992188 15.7148C0.78125 15.2148 0.675781 14.6797 0.675781 14.1094V5.08594C0.675781 4.51562 0.78125 3.98047 0.992188 3.48047C1.21094 2.98047 1.50781 2.54297 1.88281 2.16797C2.25781 1.79297 2.69531 1.5 3.19531 1.28906C3.70312 1.07031 4.24219 0.960938 4.8125 0.960938H6.00781C6.57812 0.960938 7.11328 1.07031 7.61328 1.28906C8.11328 1.5 8.55078 1.79297 8.92578 2.16797C9.30078 2.54297 9.59375 2.98047 9.80469 3.48047C10.0234 3.98047 10.1328 4.51562 10.1328 5.08594V5.76562L8.62109 6V5.08594C8.62109 4.71094 8.55078 4.36328 8.41016 4.04297C8.26953 3.71484 8.07812 3.42969 7.83594 3.1875C7.59375 2.94531 7.30859 2.75391 6.98047 2.61328C6.66016 2.47266 6.3125 2.40234 5.9375 2.40234H4.88281C4.50781 2.40234 4.15625 2.47266 3.82812 2.61328C3.50781 2.75391 3.22266 2.94531 2.97266 3.1875C2.73047 3.42969 2.53906 3.71484 2.39844 4.04297C2.25781 4.36328 2.1875 4.71094 2.1875 5.08594V14.1094C2.1875 14.4844 2.25781 14.8359 2.39844 15.1641C2.53906 15.4844 2.73047 15.7695 2.97266 16.0195C3.22266 16.2617 3.50781 16.4531 3.82812 16.5938C4.15625 16.7344 4.50781 16.8047 4.88281 16.8047H5.9375C6.3125 16.8047 6.66016 16.7344 6.98047 16.5938C7.30859 16.4531 7.59375 16.2617 7.83594 16.0195C8.07812 15.7695 8.26953 15.4844 8.41016 15.1641C8.55078 14.8359 8.62109 14.4844 8.62109 14.1094V10.6055H5.9375V9.16406H10.1328V18ZM13.3906 3.11719V1.19531H15.0664V3.11719H13.3906ZM13.5078 18V6H14.9492V18H13.5078ZM26.457 19.5117C26.457 19.9961 26.3633 20.4414 26.1758 20.8477C25.9961 21.2539 25.7461 21.6016 25.4258 21.8906C25.1055 22.1797 24.7305 22.4023 24.3008 22.5586C23.8711 22.7227 23.4141 22.8047 22.9297 22.8047H22.332C21.8477 22.8047 21.3906 22.7227 20.9609 22.5586C20.5312 22.4023 20.1562 22.1797 19.8359 21.8906C19.5156 21.6016 19.2617 21.2539 19.0742 20.8477C18.8945 20.4414 18.8047 19.9961 18.8047 19.5117V19.4648C18.8047 18.9961 18.8906 18.5664 19.0625 18.1758C19.2344 17.7852 19.4688 17.4453 19.7656 17.1562C19.3906 16.9297 19.0898 16.625 18.8633 16.2422C18.6445 15.8516 18.5352 15.4219 18.5352 14.9531C18.5352 14.5312 18.625 14.1406 18.8047 13.7812C18.9844 13.4141 19.2305 13.1172 19.543 12.8906C19.168 12.5625 18.8711 12.168 18.6523 11.707C18.4336 11.2461 18.3242 10.7422 18.3242 10.1953V9.29297C18.3242 8.80859 18.4141 8.35156 18.5938 7.92188C18.7812 7.49219 19.0352 7.11719 19.3555 6.79688C19.6758 6.47656 20.0508 6.22656 20.4805 6.04688C20.9102 5.85938 21.3672 5.76562 21.8516 5.76562H22.4492C23.0352 5.76562 23.5742 5.89844 24.0664 6.16406C24.5664 6.42188 24.9805 6.77344 25.3086 7.21875L26.0938 6H26.5742V10.1953C26.5742 10.6797 26.4805 11.1367 26.293 11.5664C26.1133 11.9961 25.8633 12.3711 25.543 12.6914C25.2227 13.0117 24.8477 13.2656 24.418 13.4531C23.9883 13.6328 23.5312 13.7227 23.0469 13.7227H20.9609C20.7969 13.7227 20.6406 13.7578 20.4922 13.8281C20.3438 13.8906 20.2109 13.9766 20.0938 14.0859C19.9844 14.1953 19.8984 14.3281 19.8359 14.4844C19.7734 14.6328 19.7422 14.7891 19.7422 14.9531C19.7422 15.1172 19.7734 15.2734 19.8359 15.4219C19.8984 15.5703 19.9844 15.7031 20.0938 15.8203C20.2109 15.9297 20.3438 16.0156 20.4922 16.0781C20.6406 16.1406 20.7969 16.1719 20.9609 16.1719H22.9297C23.4141 16.1719 23.8711 16.2539 24.3008 16.418C24.7305 16.5742 25.1055 16.7969 25.4258 17.0859C25.7461 17.375 25.9961 17.7227 26.1758 18.1289C26.3633 18.5352 26.457 18.9805 26.457 19.4648V19.5117ZM25.1445 9.21094C25.1445 8.92188 25.0898 8.65234 24.9805 8.40234C24.8711 8.14453 24.7188 7.92188 24.5234 7.73438C24.3359 7.54688 24.1133 7.39844 23.8555 7.28906C23.6055 7.17969 23.3359 7.125 23.0469 7.125H21.8516C21.5625 7.125 21.2891 7.17969 21.0312 7.28906C20.7812 7.39844 20.5625 7.54688 20.375 7.73438C20.1875 7.92188 20.0391 8.14453 19.9297 8.40234C19.8203 8.65234 19.7656 8.92188 19.7656 9.21094V10.2773C19.7656 10.5664 19.8203 10.8398 19.9297 11.0977C20.0391 11.3477 20.1875 11.5664 20.375 11.7539C20.5625 11.9414 20.7812 12.0898 21.0312 12.1992C21.2891 12.3086 21.5625 12.3633 21.8516 12.3633H23.0469C23.3359 12.3633 23.6055 12.3086 23.8555 12.1992C24.1133 12.0898 24.3359 11.9414 24.5234 11.7539C24.7188 11.5664 24.8711 11.3477 24.9805 11.0977C25.0898 10.8398 25.1445 10.5664 25.1445 10.2773V9.21094ZM25.0859 19.3945C25.0859 19.1055 25.0312 18.8438 24.9219 18.6094C24.8125 18.3828 24.6641 18.1914 24.4766 18.0352C24.2891 17.8789 24.0664 17.7578 23.8086 17.6719C23.5586 17.5859 23.2891 17.543 23 17.543H22.2617C21.9727 17.543 21.6992 17.5859 21.4414 17.6719C21.1914 17.7578 20.9727 17.8789 20.7852 18.0352C20.5977 18.1914 20.4492 18.3828 20.3398 18.6094C20.2305 18.8438 20.1758 19.1055 20.1758 19.3945V19.582C20.1758 19.8711 20.2305 20.1289 20.3398 20.3555C20.4492 20.582 20.5977 20.7734 20.7852 20.9297C20.9727 21.0938 21.1914 21.2188 21.4414 21.3047C21.6992 21.3906 21.9727 21.4336 22.2617 21.4336H23C23.2891 21.4336 23.5586 21.3906 23.8086 21.3047C24.0664 21.2188 24.2891 21.0938 24.4766 20.9297C24.6641 20.7734 24.8125 20.582 24.9219 20.3555C25.0312 20.1289 25.0859 19.8711 25.0859 19.582V19.3945ZM36.7578 18L35.9609 16.8047C35.6328 17.2344 35.2227 17.582 34.7305 17.8477C34.2383 18.1055 33.6992 18.2344 33.1133 18.2344H32.75C32.2656 18.2344 31.8086 18.1445 31.3789 17.9648C30.9492 17.7773 30.5742 17.5234 30.2539 17.2031C29.9336 16.8828 29.6797 16.5078 29.4922 16.0781C29.3125 15.6484 29.2227 15.1914 29.2227 14.707V14.5898C29.2227 14.1055 29.3125 13.6484 29.4922 13.2188C29.6797 12.7891 29.9336 12.4141 30.2539 12.0938C30.5742 11.7734 30.9492 11.5234 31.3789 11.3438C31.8086 11.1562 32.2656 11.0625 32.75 11.0625H35.7969V9.21094C35.7969 8.92188 35.7422 8.65234 35.6328 8.40234C35.5234 8.14453 35.375 7.92188 35.1875 7.73438C35 7.54688 34.7773 7.39844 34.5195 7.28906C34.2695 7.17969 34 7.125 33.7109 7.125H32.8672C32.5781 7.125 32.3047 7.17969 32.0469 7.28906C31.7969 7.39844 31.5781 7.54688 31.3906 7.73438C31.2031 7.92188 31.0547 8.14453 30.9453 8.40234C30.8359 8.65234 30.7812 8.92188 30.7812 9.21094V9.64453L29.3398 9.41016V9.29297C29.3398 8.80859 29.4297 8.35156 29.6094 7.92188C29.7969 7.49219 30.0508 7.11719 30.3711 6.79688C30.6914 6.47656 31.0664 6.22656 31.4961 6.04688C31.9258 5.85938 32.3828 5.76562 32.8672 5.76562H33.7109C34.1953 5.76562 34.6523 5.85938 35.082 6.04688C35.5117 6.22656 35.8867 6.47656 36.207 6.79688C36.5273 7.11719 36.7773 7.49219 36.957 7.92188C37.1445 8.35156 37.2383 8.80859 37.2383 9.29297V18H36.7578ZM35.7969 12.1875H32.75C32.4609 12.1875 32.1875 12.2422 31.9297 12.3516C31.6797 12.4609 31.4609 12.6133 31.2734 12.8086C31.0859 12.9961 30.9375 13.2188 30.8281 13.4766C30.7188 13.7266 30.6641 13.9961 30.6641 14.2852V14.7891C30.6641 15.0781 30.7188 15.3516 30.8281 15.6094C30.9375 15.8594 31.0859 16.0781 31.2734 16.2656C31.4609 16.4531 31.6797 16.6016 31.9297 16.7109C32.1875 16.8203 32.4609 16.875 32.75 16.875H33.7109C34 16.875 34.2695 16.8203 34.5195 16.7109C34.7773 16.6016 35 16.4531 35.1875 16.2656C35.375 16.0781 35.5234 15.8594 35.6328 15.6094C35.7422 15.3516 35.7969 15.0781 35.7969 14.7891V12.1875ZM44.4922 18C44.0547 18 43.6406 17.918 43.25 17.7539C42.8672 17.5898 42.5312 17.3633 42.2422 17.0742C41.9609 16.7852 41.7344 16.4492 41.5625 16.0664C41.3984 15.6836 41.3164 15.2734 41.3164 14.8359V7.37109H39.1602V6H41.3164V3.11719L42.7578 2.88281V6H45.8047V7.37109H42.7578V14.9062C42.7578 15.1484 42.8008 15.375 42.8867 15.5859C42.9805 15.7891 43.1055 15.9688 43.2617 16.125C43.418 16.2812 43.6016 16.4062 43.8125 16.5C44.0234 16.5859 44.25 16.6289 44.4922 16.6289H45.8047V18H44.4922ZM51.9922 7.37109C51.7031 7.37109 51.4297 7.42578 51.1719 7.53516C50.9219 7.64453 50.7031 7.79297 50.5156 7.98047C50.3281 8.16797 50.1797 8.39062 50.0703 8.64844C49.9609 8.89844 49.9062 9.16797 49.9062 9.45703V18H48.4648V6H48.9453L49.7305 7.21875C50.0586 6.77344 50.4688 6.42188 50.9609 6.16406C51.4609 5.89844 52.0039 5.76562 52.5898 5.76562H53.4336V7.37109H51.9922ZM62.8906 18L62.0938 16.8047C61.7656 17.2344 61.3555 17.582 60.8633 17.8477C60.3711 18.1055 59.832 18.2344 59.2461 18.2344H58.8828C58.3984 18.2344 57.9414 18.1445 57.5117 17.9648C57.082 17.7773 56.707 17.5234 56.3867 17.2031C56.0664 16.8828 55.8125 16.5078 55.625 16.0781C55.4453 15.6484 55.3555 15.1914 55.3555 14.707V14.5898C55.3555 14.1055 55.4453 13.6484 55.625 13.2188C55.8125 12.7891 56.0664 12.4141 56.3867 12.0938C56.707 11.7734 57.082 11.5234 57.5117 11.3438C57.9414 11.1562 58.3984 11.0625 58.8828 11.0625H61.9297V9.21094C61.9297 8.92188 61.875 8.65234 61.7656 8.40234C61.6562 8.14453 61.5078 7.92188 61.3203 7.73438C61.1328 7.54688 60.9102 7.39844 60.6523 7.28906C60.4023 7.17969 60.1328 7.125 59.8438 7.125H59C58.7109 7.125 58.4375 7.17969 58.1797 7.28906C57.9297 7.39844 57.7109 7.54688 57.5234 7.73438C57.3359 7.92188 57.1875 8.14453 57.0781 8.40234C56.9688 8.65234 56.9141 8.92188 56.9141 9.21094V9.64453L55.4727 9.41016V9.29297C55.4727 8.80859 55.5625 8.35156 55.7422 7.92188C55.9297 7.49219 56.1836 7.11719 56.5039 6.79688C56.8242 6.47656 57.1992 6.22656 57.6289 6.04688C58.0586 5.85938 58.5156 5.76562 59 5.76562H59.8438C60.3281 5.76562 60.7852 5.85938 61.2148 6.04688C61.6445 6.22656 62.0195 6.47656 62.3398 6.79688C62.6602 7.11719 62.9102 7.49219 63.0898 7.92188C63.2773 8.35156 63.3711 8.80859 63.3711 9.29297V18H62.8906ZM61.9297 12.1875H58.8828C58.5938 12.1875 58.3203 12.2422 58.0625 12.3516C57.8125 12.4609 57.5938 12.6133 57.4062 12.8086C57.2188 12.9961 57.0703 13.2188 56.9609 13.4766C56.8516 13.7266 56.7969 13.9961 56.7969 14.2852V14.7891C56.7969 15.0781 56.8516 15.3516 56.9609 15.6094C57.0703 15.8594 57.2188 16.0781 57.4062 16.2656C57.5938 16.4531 57.8125 16.6016 58.0625 16.7109C58.3203 16.8203 58.5938 16.875 58.8828 16.875H59.8438C60.1328 16.875 60.4023 16.8203 60.6523 16.7109C60.9102 16.6016 61.1328 16.4531 61.3203 16.2656C61.5078 16.0781 61.6562 15.8594 61.7656 15.6094C61.875 15.3516 61.9297 15.0781 61.9297 14.7891V12.1875ZM66.6172 3.11719V1.19531H68.293V3.11719H66.6172ZM66.7344 18V6H68.1758V18H66.7344ZM78.125 18V9.21094C78.125 8.92188 78.0703 8.65234 77.9609 8.40234C77.8516 8.14453 77.7031 7.92188 77.5156 7.73438C77.3281 7.54688 77.1055 7.39844 76.8477 7.28906C76.5977 7.17969 76.3281 7.125 76.0391 7.125H75.0781C74.7891 7.125 74.5156 7.17969 74.2578 7.28906C74.0078 7.39844 73.7891 7.54688 73.6016 7.73438C73.4141 7.92188 73.2656 8.14453 73.1562 8.40234C73.0469 8.65234 72.9922 8.92188 72.9922 9.21094V18H71.5508V6H72.0312L72.8164 7.21875C73.1445 6.77344 73.5547 6.42188 74.0469 6.16406C74.5469 5.89844 75.0898 5.76562 75.6758 5.76562H76.0391C76.5234 5.76562 76.9805 5.85938 77.4102 6.04688C77.8398 6.22656 78.2148 6.47656 78.5352 6.79688C78.8555 7.11719 79.1055 7.49219 79.2852 7.92188C79.4727 8.35156 79.5664 8.80859 79.5664 9.29297V18H78.125Z" fill="white"/>
</svg>
